<svg id="Layer_1" data-name="Layer 1" xmlns="http://www.w3.org/2000/svg" viewBox="0 0 102.29 36.63"><defs><style>.cls-1{fill:#3dae2b;}.cls-2{fill:#4d4d4d;}</style></defs><title>LANSA_LOGO_2C_LOCKUP</title><polygon class="cls-1" points="7.7 0.15 0 0.15 0 26.09 14.81 26.09 14.81 19.82 7.7 19.82 7.7 0.15"/><path class="cls-1" d="M58.71,5.13H47.15S43.77,5,43.8,7.88V31h7.53V11.46s-.2-1,.75-1H53.4s.75,0,.62,1V31h8V7.8S62.05,5,58.71,5.13Z" transform="translate(-5.48 -4.86)"/><path class="cls-1" d="M38.28,5H26.06S23,5.1,23,8V31h7.45V24.68h2.68V31h8V7.61A2.71,2.71,0,0,0,38.28,5Zm-5.19,14.4H30.41v-9h2.68Z" transform="translate(-5.48 -4.86)"/><path class="cls-1" d="M100.74,5.05H88.52s-3.09.08-3.09,3V31h7.45V24.71h2.67V31h8V7.64A2.7,2.7,0,0,0,100.74,5.05ZM95.55,19.44H92.88v-9h2.67Z" transform="translate(-5.48 -4.86)"/><path class="cls-1" d="M78.65,16.16,73,13.37c-.5-.25-1.15,0-1-3.19l3,0v2.09h7.87V8.05s-.29-3.23-4.18-3.18H69s-4.09-.23-4.27,3v7.36s0,2.56,3.68,3.77l5.78,2.59a1.29,1.29,0,0,1,.66,1.09c0,1.56,0,2.18,0,2.18H71.7V22.69H64.76v3.93a4.1,4.1,0,0,0,.39,1.75,4.69,4.69,0,0,0,4.13,2.69h9s4.35-.67,4.43-5V20.18S82.84,17.67,78.65,16.16Z" transform="translate(-5.48 -4.86)"/><path class="cls-1" d="M106.28,30.16l-.16-.32a2.14,2.14,0,0,0-.27-.4c-.08-.08-.15-.1-.33-.1h-.08v.82H105v-2h1a.56.56,0,1,1,.09,1.11h0c.17.06.22.12.42.47l.24.4ZM105.86,29c.28,0,.37-.14.37-.28s-.14-.27-.41-.27h-.38V29Zm-1.47.13a1.51,1.51,0,1,0,1.5-1.51A1.51,1.51,0,0,0,104.39,29.16Zm3.38,0a1.88,1.88,0,1,1-1.88-1.88A1.88,1.88,0,0,1,107.77,29.16Z" transform="translate(-5.48 -4.86)"/><path class="cls-2" d="M38,35.33h.44l1.94,4.6h-.48l-.5-1.22H37l-.52,1.22H36Zm.2.47-1.07,2.52h2.11Z" transform="translate(-5.48 -4.86)"/><path class="cls-2" d="M41,37.77v-.2a1.93,1.93,0,0,1,0-.24,2,2,0,0,1,0-.24,1,1,0,0,1,0-.16h.39c0,.11,0,.22,0,.32a.84.84,0,0,0,0,.21h0a.94.94,0,0,1,.39-.43,1.11,1.11,0,0,1,.63-.18A1.28,1.28,0,0,1,43,37a.92.92,0,0,1,.35.29,1.17,1.17,0,0,1,.18.41,2.61,2.61,0,0,1,0,.48v1.79h-.39V38.16a1.34,1.34,0,0,0,0-.35A1,1,0,0,0,43,37.5a.61.61,0,0,0-.23-.22.8.8,0,0,0-.38-.08,1.06,1.06,0,0,0-.4.08,1,1,0,0,0-.34.22,1.32,1.32,0,0,0-.22.39,1.71,1.71,0,0,0-.08.54v1.5H41Z" transform="translate(-5.48 -4.86)"/><path class="cls-2" d="M46.39,35.33h.43v4.6h-.43Z" transform="translate(-5.48 -4.86)"/><path class="cls-2" d="M50.59,39.41h0a1,1,0,0,1-.23.26,1.32,1.32,0,0,1-.29.19,1.35,1.35,0,0,1-.34.11,1.37,1.37,0,0,1-.34,0,1.66,1.66,0,0,1-.64-.12,1.32,1.32,0,0,1-.5-.33,1.45,1.45,0,0,1-.33-.5,1.86,1.86,0,0,1,0-1.26,1.49,1.49,0,0,1,.83-.83,1.66,1.66,0,0,1,.64-.12,1.37,1.37,0,0,1,.34,0,1.35,1.35,0,0,1,.34.11,1.32,1.32,0,0,1,.29.19.87.87,0,0,1,.23.27h0V35H51v4.91h-.39Zm0-1a1.12,1.12,0,0,0-.1-.48,1.16,1.16,0,0,0-.26-.39,1.31,1.31,0,0,0-.4-.26,1.16,1.16,0,0,0-.49-.1,1.15,1.15,0,0,0-.5.1,1.13,1.13,0,0,0-.61.65,1.48,1.48,0,0,0,0,1,1.13,1.13,0,0,0,.61.65,1.15,1.15,0,0,0,.5.1,1.16,1.16,0,0,0,.49-.1,1.31,1.31,0,0,0,.4-.26,1.16,1.16,0,0,0,.26-.39A1.12,1.12,0,0,0,50.63,38.43Z" transform="translate(-5.48 -4.86)"/><path class="cls-2" d="M54.59,39.37a1.31,1.31,0,0,1-.56.49,1.81,1.81,0,0,1-.74.15,1.52,1.52,0,0,1-.62-.12,1.37,1.37,0,0,1-.49-.33,1.39,1.39,0,0,1-.3-.5,1.62,1.62,0,0,1-.11-.64,1.8,1.8,0,0,1,.11-.62,1.51,1.51,0,0,1,.31-.5A1.55,1.55,0,0,1,53.88,37a1.43,1.43,0,0,1,.44.32,1.29,1.29,0,0,1,.27.45,1.52,1.52,0,0,1,.09.51v.28H52.16a1,1,0,0,0,.05.31,1,1,0,0,0,.18.38,1.14,1.14,0,0,0,.34.31,1.09,1.09,0,0,0,.57.13,1.26,1.26,0,0,0,.57-.14,1.09,1.09,0,0,0,.43-.39Zm-.3-1.19a1,1,0,0,0-.08-.38,1.16,1.16,0,0,0-.22-.31,1,1,0,0,0-.33-.21,1.15,1.15,0,0,0-.41-.08,1.06,1.06,0,0,0-.53.13,1.21,1.21,0,0,0-.33.3,1.08,1.08,0,0,0-.18.33,1.16,1.16,0,0,0-.05.22Z" transform="translate(-5.48 -4.86)"/><path class="cls-2" d="M55.55,37.77a1.56,1.56,0,0,0,0-.2v-.24a2,2,0,0,1,0-.24,1,1,0,0,1,0-.16h.39c0,.11,0,.22,0,.32s0,.17,0,.21a1.28,1.28,0,0,1,.39-.44,1,1,0,0,1,.57-.17H57l.12,0,0,.39a.4.4,0,0,0-.15,0,1.19,1.19,0,0,0-.44.08.86.86,0,0,0-.3.23.88.88,0,0,0-.18.33,1.4,1.4,0,0,0-.06.41v1.64h-.39Z" transform="translate(-5.48 -4.86)"/><path class="cls-2" d="M60.05,38.67v.4c0,.11,0,.22,0,.32s0,.19,0,.28a1.15,1.15,0,0,0,0,.26h-.37a3.6,3.6,0,0,1,0-.49h0a1,1,0,0,1-.42.43,1.31,1.31,0,0,1-.63.14,1.74,1.74,0,0,1-.39,0,.84.84,0,0,1-.33-.16.93.93,0,0,1-.25-.27,1,1,0,0,1,.08-1,1.23,1.23,0,0,1,.44-.3,1.94,1.94,0,0,1,.54-.13l.51,0h.46v-.18a.63.63,0,0,0-.24-.56,1,1,0,0,0-.61-.17,1.34,1.34,0,0,0-.91.34l-.23-.27a1.33,1.33,0,0,1,.53-.31,2,2,0,0,1,.61-.11,1.35,1.35,0,0,1,.87.26,1,1,0,0,1,.33.83Zm-.78-.25a2.52,2.52,0,0,0-.48,0,1.3,1.3,0,0,0-.41.11.75.75,0,0,0-.3.2.52.52,0,0,0-.11.33.48.48,0,0,0,.06.24.46.46,0,0,0,.16.18.74.74,0,0,0,.22.1.67.67,0,0,0,.24,0,1.31,1.31,0,0,0,.52-.09.87.87,0,0,0,.32-.24.84.84,0,0,0,.16-.33,1.58,1.58,0,0,0,.05-.38v-.2Z" transform="translate(-5.48 -4.86)"/><path class="cls-2" d="M61.32,39.35h.46l-.5,1.48h-.39Z" transform="translate(-5.48 -4.86)"/><path class="cls-2" d="M64.58,35.33H65v4.6h-.43Z" transform="translate(-5.48 -4.86)"/><path class="cls-2" d="M66.16,37.77a1.56,1.56,0,0,0,0-.2c0-.08,0-.16,0-.24a1.85,1.85,0,0,0,0-.24v-.16h.39c0,.11,0,.22,0,.32a1,1,0,0,0,0,.21h0A1.06,1.06,0,0,1,67,37a1.14,1.14,0,0,1,.64-.18,1.35,1.35,0,0,1,.57.11,1,1,0,0,1,.35.29,1.15,1.15,0,0,1,.17.41,2,2,0,0,1,0,.48v1.79h-.39V38.16a2,2,0,0,0,0-.35,1,1,0,0,0-.11-.31.69.69,0,0,0-.23-.22.82.82,0,0,0-.38-.08,1.15,1.15,0,0,0-.41.08.83.83,0,0,0-.33.22,1.13,1.13,0,0,0-.22.39,1.71,1.71,0,0,0-.08.54v1.5h-.39Z" transform="translate(-5.48 -4.86)"/><path class="cls-2" d="M72.29,39.49a1.4,1.4,0,0,1-1.11.52,1.61,1.61,0,0,1-.63-.12,1.25,1.25,0,0,1-.5-.33,1.45,1.45,0,0,1-.33-.5,1.71,1.71,0,0,1,0-1.26,1.45,1.45,0,0,1,.33-.5,1.37,1.37,0,0,1,.5-.33,1.61,1.61,0,0,1,.63-.12,1.44,1.44,0,0,1,.62.14,1.66,1.66,0,0,1,.5.38L72,37.6a1.43,1.43,0,0,0-.37-.29,1,1,0,0,0-.44-.11,1.13,1.13,0,0,0-.49.1,1.12,1.12,0,0,0-.38.26,1.09,1.09,0,0,0-.23.39,1.33,1.33,0,0,0,0,1,1.09,1.09,0,0,0,.23.39,1.12,1.12,0,0,0,.38.26,1.13,1.13,0,0,0,.49.1.84.84,0,0,0,.45-.12,1,1,0,0,0,.36-.3Z" transform="translate(-5.48 -4.86)"/><path class="cls-2" d="M72.91,39.66a.29.29,0,0,1,.09-.22.31.31,0,0,1,.22-.09.33.33,0,0,1,.23.09.31.31,0,0,1,0,.44.33.33,0,0,1-.23.09.31.31,0,0,1-.22-.09A.29.29,0,0,1,72.91,39.66Z" transform="translate(-5.48 -4.86)"/><path class="cls-2" d="M80.18,39.21a1.93,1.93,0,0,1-.77.64,2.26,2.26,0,0,1-.94.2,2.58,2.58,0,0,1-1-.18,2.29,2.29,0,0,1-.75-.5,2.24,2.24,0,0,1-.48-.77,2.54,2.54,0,0,1-.18-1,2.58,2.58,0,0,1,.18-1,2.29,2.29,0,0,1,.48-.76,2.32,2.32,0,0,1,.75-.51,2.58,2.58,0,0,1,1-.18,2.29,2.29,0,0,1,.87.17,1.72,1.72,0,0,1,.72.55l-.35.3a1.33,1.33,0,0,0-.55-.48,1.72,1.72,0,0,0-.69-.15,1.92,1.92,0,0,0-.81.16,1.78,1.78,0,0,0-.61.43,1.81,1.81,0,0,0-.39.64,2.36,2.36,0,0,0,0,1.6,1.81,1.81,0,0,0,.39.64,1.65,1.65,0,0,0,.61.43,1.92,1.92,0,0,0,.81.16,2.2,2.2,0,0,0,.36,0,2.32,2.32,0,0,0,.37-.13,2.46,2.46,0,0,0,.34-.22,1.32,1.32,0,0,0,.29-.33Z" transform="translate(-5.48 -4.86)"/><path class="cls-2" d="M80.69,38.43a1.61,1.61,0,0,1,.11-.63,1.49,1.49,0,0,1,.83-.83,1.66,1.66,0,0,1,.64-.12,1.61,1.61,0,0,1,.63.12,1.56,1.56,0,0,1,.5.33,1.45,1.45,0,0,1,.33.5,1.86,1.86,0,0,1,0,1.26,1.45,1.45,0,0,1-.33.5,1.41,1.41,0,0,1-.5.33,1.61,1.61,0,0,1-.63.12,1.66,1.66,0,0,1-.64-.12,1.32,1.32,0,0,1-.5-.33,1.45,1.45,0,0,1-.33-.5A1.61,1.61,0,0,1,80.69,38.43Zm.39,0a1.27,1.27,0,0,0,.08.48,1.09,1.09,0,0,0,.23.39,1.12,1.12,0,0,0,.38.26,1.15,1.15,0,0,0,.5.1,1.13,1.13,0,0,0,.49-.1,1.12,1.12,0,0,0,.38-.26,1.09,1.09,0,0,0,.23-.39,1.33,1.33,0,0,0,0-1,1.09,1.09,0,0,0-.23-.39,1.12,1.12,0,0,0-.38-.26,1.13,1.13,0,0,0-.49-.1,1.15,1.15,0,0,0-.5.1,1.12,1.12,0,0,0-.38.26,1.09,1.09,0,0,0-.23.39A1.27,1.27,0,0,0,81.08,38.43Z" transform="translate(-5.48 -4.86)"/><path class="cls-2" d="M84.72,37.77c0-.05,0-.12,0-.2s0-.16,0-.24,0-.16,0-.24,0-.12,0-.16h.39c0,.11,0,.22,0,.32a2.1,2.1,0,0,0,0,.21h0a1.06,1.06,0,0,1,.39-.43,1.12,1.12,0,0,1,.64-.18,1,1,0,0,1,.54.15.86.86,0,0,1,.36.5,1,1,0,0,1,.43-.49,1.11,1.11,0,0,1,.59-.16,1.31,1.31,0,0,1,.57.11.92.92,0,0,1,.35.29,1.38,1.38,0,0,1,.18.41,2.59,2.59,0,0,1,0,.48v1.79h-.39V38.16a2,2,0,0,0,0-.35,1,1,0,0,0-.11-.31.69.69,0,0,0-.23-.22.82.82,0,0,0-.38-.08,1,1,0,0,0-.45.1.75.75,0,0,0-.27.26,1,1,0,0,0-.15.34,1.37,1.37,0,0,0,0,.34v1.69h-.39V38.12a1.26,1.26,0,0,0-.15-.66.51.51,0,0,0-.47-.26,1.11,1.11,0,0,0-.41.08.83.83,0,0,0-.33.22,1.13,1.13,0,0,0-.22.39,1.46,1.46,0,0,0-.08.54v1.5h-.39Z" transform="translate(-5.48 -4.86)"/><path class="cls-2" d="M90.17,36.93h.39v.53h0a.87.87,0,0,1,.23-.27,1.45,1.45,0,0,1,.63-.3,1.39,1.39,0,0,1,.35,0,1.64,1.64,0,0,1,.63.12,1.56,1.56,0,0,1,.5.33,1.45,1.45,0,0,1,.33.5,1.86,1.86,0,0,1,0,1.26,1.45,1.45,0,0,1-.33.5,1.41,1.41,0,0,1-.5.33,1.64,1.64,0,0,1-.63.12,1.39,1.39,0,0,1-.35,0,1.45,1.45,0,0,1-.63-.3,1,1,0,0,1-.23-.26h0v2h-.39Zm.35,1.5a1.12,1.12,0,0,0,.1.48,1.16,1.16,0,0,0,.26.39,1.31,1.31,0,0,0,.4.26,1.18,1.18,0,0,0,.5.1,1.13,1.13,0,0,0,.49-.1,1.12,1.12,0,0,0,.38-.26,1.09,1.09,0,0,0,.23-.39,1.48,1.48,0,0,0,0-1,1.09,1.09,0,0,0-.23-.39,1.12,1.12,0,0,0-.38-.26,1.13,1.13,0,0,0-.49-.1,1.18,1.18,0,0,0-.5.1,1.31,1.31,0,0,0-.4.26,1.16,1.16,0,0,0-.26.39A1.12,1.12,0,0,0,90.52,38.43Z" transform="translate(-5.48 -4.86)"/><path class="cls-2" d="M96.56,38.67v.4c0,.11,0,.22,0,.32s0,.19,0,.28l0,.26h-.37a3.6,3.6,0,0,1,0-.49h0a1,1,0,0,1-.42.43,1.31,1.31,0,0,1-.63.14,1.58,1.58,0,0,1-.38,0,.82.82,0,0,1-.34-.16.93.93,0,0,1-.25-.27,1,1,0,0,1,.08-1,1.23,1.23,0,0,1,.44-.3,1.94,1.94,0,0,1,.54-.13l.51,0h.46v-.18a.63.63,0,0,0-.24-.56,1,1,0,0,0-.61-.17,1.34,1.34,0,0,0-.91.34l-.23-.27a1.33,1.33,0,0,1,.53-.31,2,2,0,0,1,.61-.11,1.35,1.35,0,0,1,.87.26,1,1,0,0,1,.33.83Zm-.78-.25a2.59,2.59,0,0,0-.48,0,1.3,1.3,0,0,0-.41.11.75.75,0,0,0-.3.2.52.52,0,0,0-.11.33.48.48,0,0,0,.06.24.56.56,0,0,0,.16.18.88.88,0,0,0,.22.1.67.67,0,0,0,.24,0,1.31,1.31,0,0,0,.52-.09.87.87,0,0,0,.32-.24.84.84,0,0,0,.16-.33,1.58,1.58,0,0,0,0-.38v-.2Z" transform="translate(-5.48 -4.86)"/><path class="cls-2" d="M97.6,37.77a1.56,1.56,0,0,0,0-.2c0-.08,0-.16,0-.24a1.85,1.85,0,0,0,0-.24v-.16H98c0,.11,0,.22,0,.32a1,1,0,0,0,0,.21h0a1.06,1.06,0,0,1,.39-.43,1.14,1.14,0,0,1,.64-.18,1.35,1.35,0,0,1,.57.11,1,1,0,0,1,.35.29,1.15,1.15,0,0,1,.17.41,2,2,0,0,1,0,.48v1.79h-.39V38.16a2,2,0,0,0,0-.35,1,1,0,0,0-.11-.31.69.69,0,0,0-.23-.22A.82.82,0,0,0,99,37.2a1.15,1.15,0,0,0-.41.08.91.91,0,0,0-.33.22,1.13,1.13,0,0,0-.22.39,1.71,1.71,0,0,0-.08.54v1.5H97.6Z" transform="translate(-5.48 -4.86)"/><path class="cls-2" d="M102.06,40.86a1.13,1.13,0,0,1-.31.46.73.73,0,0,1-.52.17H101l-.19,0,0-.36.17,0,.18,0a.35.35,0,0,0,.18,0,.31.31,0,0,0,.14-.11.91.91,0,0,0,.11-.16l.07-.18.27-.7-1.22-3h.44l1,2.53,1-2.53h.42Z" transform="translate(-5.48 -4.86)"/></svg>